<svg xmlns="http://www.w3.org/2000/svg" width="42" height="42" viewBox="0 0 42 42">
  <g id="answer" transform="translate(-605 -1878)">
    <g id="그룹_64" data-name="그룹 64">
      <g id="패스_50" data-name="패스 50" transform="translate(605 1878.001)" fill="#fff">
        <path d="M 21.00003051757812 40.74906158447266 C 18.33320999145508 40.74906158447266 15.74684047698975 40.2270393371582 13.31276035308838 39.197509765625 C 10.96109008789062 38.20284271240234 8.848810195922852 36.77861022949219 7.034610748291016 34.96438980102539 C 5.220410346984863 33.15018081665039 3.796190500259399 31.03789138793945 2.801530599594116 28.68621063232422 C 1.772010564804077 26.25212097167969 1.250000476837158 23.66575050354004 1.250000476837158 20.99894142150879 C 1.250000476837158 18.33218193054199 1.772010564804077 15.74584102630615 2.801530599594116 13.31178092956543 C 3.796190500259399 10.96012115478516 5.220400333404541 8.847850799560547 7.034600734710693 7.033650875091553 C 8.848810195922852 5.219440937042236 10.96109008789062 3.795221090316772 13.31276035308838 2.800541162490845 C 15.74684047698975 1.771021008491516 18.33322143554688 1.249001026153564 21.00003051757812 1.249001026153564 C 23.66680145263672 1.249001026153564 26.25314140319824 1.771011114120483 28.68721961975098 2.800541162490845 C 31.03889083862305 3.795221090316772 33.15116882324219 5.219440937042236 34.96538925170898 7.033650875091553 C 36.77960205078125 8.847861289978027 38.20383071899414 10.96013069152832 39.19850921630859 13.31179141998291 C 40.2280387878418 15.74585151672363 40.75006103515625 18.33218193054199 40.75006103515625 20.99894142150879 C 40.75006103515625 24.93219184875488 39.59669876098633 28.73092079162598 37.41468048095703 31.98444175720215 L 37.05463027954102 32.52128982543945 L 37.28459930419922 33.12540054321289 L 39.84045028686523 39.83945846557617 L 33.12636184692383 37.28361129760742 L 32.52228164672852 37.05366134643555 L 31.98545074462891 37.41366195678711 C 28.73161125183105 39.59569931030273 24.93292045593262 40.74906158447266 21.00003051757812 40.74906158447266 Z" stroke="none"/>
        <path d="M 21.00003051757812 39.49906158447266 C 24.68411064147949 39.49906158447266 28.2420597076416 38.41895294189453 31.28923988342285 36.37549209594727 L 32.36289978027344 35.65547943115234 L 37.68084716796875 37.67985916137695 L 35.65645217895508 32.36189270019531 L 36.37652969360352 31.28820037841797 C 38.41996002197266 28.24133110046387 39.50006103515625 24.6833610534668 39.50006103515625 20.99894142150879 C 39.50006103515625 16.05746078491211 37.57571029663086 11.41173076629639 34.08150863647461 7.917541027069092 C 30.58728981018066 4.423341274261475 25.9415397644043 2.499001026153564 21.00003051757812 2.499001026153564 C 16.0584602355957 2.499001026153564 11.41267013549805 4.423341274261475 7.918490409851074 7.91753101348877 C 4.424320697784424 11.41170120239258 2.500000476837158 16.05744171142578 2.500000476837158 20.99894142150879 C 2.500000476837158 25.94052124023438 4.424320697784424 30.5863208770752 7.918490409851074 34.08050918579102 C 11.41267013549805 37.57472229003906 16.05845069885254 39.49906158447266 21.00003051757812 39.49906158447266 M 42.00006103515625 41.99906158447266 L 32.6816520690918 38.45183181762695 C 29.34167098999023 40.69164276123047 25.32372093200684 41.99906158447266 21.00003051757812 41.99906158447266 C 9.401910781860352 41.99906158447266 5.175781438992999e-07 32.59700012207031 5.175781438992999e-07 20.99894142150879 C 5.175781438992999e-07 9.401061058044434 9.401910781860352 -0.0009989331010729074 21.00003051757812 -0.0009989331010729074 C 32.59796142578125 -0.0009989331010729074 42.00006103515625 9.401061058044434 42.00006103515625 20.99894142150879 C 42.00006103515625 25.32261085510254 40.69282150268555 29.34072113037109 38.45281982421875 32.68069076538086 L 42.00006103515625 41.99906158447266 Z" stroke="none" fill="#008ae3"/>
      </g>
    </g>
    <path id="패스_51" data-name="패스 51" d="M2.22-32.847,8.577-50.1h3.792l6.357,17.251H15.285l-1.973-5.546-6.291,1.71L5.661-32.847ZM8.073-39.6l4.384-1.184L10.462-46.35Z" transform="translate(615.527 1940.472)" fill="#008ae3"/>
  </g>
</svg>
