<svg xmlns="http://www.w3.org/2000/svg" width="20" height="20" viewBox="0 0 20 20">
  <path id="language_on" d="M10.587,20H9.415l-.423-.048A9.86,9.86,0,0,1,3.769,17.8,9.862,9.862,0,0,1,.153,11.7c-.066-.369-.1-.744-.153-1.116V9.413c.012-.069.026-.138.036-.208C.1,8.787.128,8.363.217,7.951A9.8,9.8,0,0,1,3.535,2.393,9.747,9.747,0,0,1,11.012.052a9.524,9.524,0,0,1,5.257,2.176,9.821,9.821,0,0,1,3.725,7.538,9.356,9.356,0,0,1-1.17,4.914,9.9,9.9,0,0,1-7.1,5.165c-.375.072-.758.105-1.137.157M7.716,11.985H12.27a7.744,7.744,0,0,0,.113-3.973H7.717a9.587,9.587,0,0,0,0,3.973M5.7,8.023A.379.379,0,0,0,5.618,8C4.55,8,3.482,8,2.415,8c-.118,0-.133.067-.158.153a6.793,6.793,0,0,0-.006,3.68c.038.14.1.166.229.165,1.009,0,2.018,0,3.027,0,.062,0,.124-.005.205-.009A20.008,20.008,0,0,1,5.7,8.023m12.111,3.962a6.9,6.9,0,0,0,0-3.971H14.395a20.563,20.563,0,0,1,.008,3.971ZM10,2.01A14.387,14.387,0,0,0,8.108,5.987h3.783A13.116,13.116,0,0,0,10,2.01m1.892,12H8.11A13.062,13.062,0,0,0,10,17.987a14.38,14.38,0,0,0,1.892-3.976m2.141-8.025H16.9a8.138,8.138,0,0,0-4.272-3.574c.272.605.553,1.171.784,1.757s.416,1.2.626,1.817M3.122,14c.544,1.326,3.09,3.444,4.25,3.553-.013-.031-.025-.062-.039-.091a15.886,15.886,0,0,1-1.3-3.335C6,14,5.935,14,5.838,14c-.553,0-1.107,0-1.66,0H3.122m13.783,0c-.965,0-1.875,0-2.786,0-.12,0-.136.071-.157.155A14.3,14.3,0,0,1,12.7,17.413c-.025.047-.043.1-.078.178A8.168,8.168,0,0,0,16.906,14M7.393,2.4A8.466,8.466,0,0,0,3.109,6c.955,0,1.866,0,2.776,0,.122,0,.128-.077.156-.156.282-.795.557-1.593.856-2.382.133-.35.316-.681.5-1.061" transform="translate(0 -0.001)" fill="#001c50"/>
</svg>
