<svg xmlns="http://www.w3.org/2000/svg" xmlns:xlink="http://www.w3.org/1999/xlink" width="169.245" height="33" viewBox="0 0 169.245 33">
  <defs>
    <clipPath id="clip-path">
      <rect id="사각형_44" data-name="사각형 44" width="169.245" height="33" fill="none"/>
    </clipPath>
  </defs>
  <g id="logo_01" transform="translate(0 0)">
    <path id="패스_61" data-name="패스 61" d="M28.579,25.7,30.616,4.614H37.77l2,21.087H35.781l-.3-3.4H32.943l-.265,3.4Zm4.661-6.772h1.918L34.235,8.207h-.19Z" transform="translate(8.332 1.345)" fill="#001c50"/>
    <path id="패스_62" data-name="패스 62" d="M38.246,25.7V4.614h4.218v17.5h4.343V25.7Z" transform="translate(11.15 1.345)" fill="#001c50"/>
    <path id="패스_63" data-name="패스 63" d="M45.8,25.7V4.614h4.222v17.5h4.336V25.7Z" transform="translate(13.351 1.345)" fill="#001c50"/>
    <path id="패스_64" data-name="패스 64" d="M58.332,25.7V8.66H55.822V4.614h9.227V8.66h-2.5V25.7Z" transform="translate(16.274 1.345)" fill="#001c50"/>
    <path id="패스_65" data-name="패스 65" d="M63.873,25.7V4.614h4.195v7.536h1.989V4.614H74.25V25.7H70.057v-9.56H68.068V25.7Z" transform="translate(18.621 1.345)" fill="#001c50"/>
    <path id="패스_66" data-name="패스 66" d="M72.909,25.7,74.946,4.614H82.1l2,21.087H80.114l-.3-3.4H77.273l-.265,3.4Zm4.661-6.772h1.922L78.565,8.207h-.19Z" transform="translate(21.256 1.345)" fill="#001c50"/>
    <path id="패스_67" data-name="패스 67" d="M84.308,25.7V8.66H81.8V4.614h9.227V8.66h-2.5V25.7Z" transform="translate(23.847 1.345)" fill="#001c50"/>
    <g id="그룹_44" data-name="그룹 44" transform="translate(0 0)">
      <g id="그룹_43" data-name="그룹 43" clip-path="url(#clip-path)">
        <path id="패스_68" data-name="패스 68" d="M97.9,25.935A5.341,5.341,0,0,1,93.731,24.5a6.787,6.787,0,0,1-1.279-4.581V17.864h4.174V20.5a2.418,2.418,0,0,0,.223,1.143.785.785,0,0,0,.771.412.893.893,0,0,0,.8-.331,2.13,2.13,0,0,0,.217-1.1,5.782,5.782,0,0,0-.19-1.623,3.688,3.688,0,0,0-.663-1.245,14.522,14.522,0,0,0-1.312-1.387l-1.895-1.8A6.131,6.131,0,0,1,92.452,9.99,6.042,6.042,0,0,1,93.7,5.876,4.6,4.6,0,0,1,97.33,4.462c1.935,0,3.308.52,4.12,1.55a7.567,7.567,0,0,1,1.211,4.695H98.372V9.259a.886.886,0,0,0-.244-.67,1.063,1.063,0,0,0-1.4.041,1.091,1.091,0,0,0-.238.723,2.258,2.258,0,0,0,.244.961,4.223,4.223,0,0,0,.947,1.184l2.429,2.334a15.129,15.129,0,0,1,1.346,1.468,6.544,6.544,0,0,1,.982,1.8,7.484,7.484,0,0,1,.372,2.5,8.458,8.458,0,0,1-1.1,4.655A4.2,4.2,0,0,1,97.9,25.935" transform="translate(26.953 1.301)" fill="#0079c7"/>
        <path id="패스_69" data-name="패스 69" d="M101.551,25.7V4.614h5.574a4.475,4.475,0,0,1,2.774.778,4.293,4.293,0,0,1,1.468,2.219,11.839,11.839,0,0,1,.439,3.424,13.126,13.126,0,0,1-.372,3.335,4.019,4.019,0,0,1-1.319,2.2,4.168,4.168,0,0,1-2.707.778H105.7V25.7ZM105.7,13.564h.236c.785,0,1.266-.223,1.441-.663a5.477,5.477,0,0,0,.263-1.942,5.266,5.266,0,0,0-.257-1.847,1.152,1.152,0,0,0-1.218-.656H105.7Z" transform="translate(29.606 1.346)" fill="#0079c7"/>
        <rect id="사각형_43" data-name="사각형 43" width="4.072" height="21.087" transform="translate(142.556 5.96)" fill="#0079c7"/>
        <path id="패스_70" data-name="패스 70" d="M114.83,25.7V4.614h4.337l1.941,10.1V4.614h4.072V25.7h-4.12l-2.11-10.547V25.7Z" transform="translate(33.477 1.346)" fill="#0079c7"/>
        <path id="패스_71" data-name="패스 71" d="M124.295,25.7V4.614h8.436V8.687h-4.147v4.107h3.978v3.97h-3.978v4.824h4.425V25.7Z" transform="translate(36.236 1.346)" fill="#0079c7"/>
        <path id="패스_72" data-name="패스 72" d="M3.154,25.588c.4-1.087.748-1.931,1.7-2.09a1.4,1.4,0,0,1-.017-1.357,16.054,16.054,0,0,0,1.1-3.115,21.758,21.758,0,0,1,.927-2.808,1.931,1.931,0,0,1,1.17-1.142A2.12,2.12,0,0,1,8.2,13.094a1.9,1.9,0,0,0,.22-.6c.019-.143.04-.287.071-.429l.323-1.427c.2-.872.4-1.745.584-2.619a1.578,1.578,0,0,1,.763-1.169,1.348,1.348,0,0,1-.1-1.041A9.809,9.809,0,0,0,10.3,2.365c-.005-.1,0-.2,0-.3H0V29.628H1.859c.256-.661.475-1.343.682-2.066.189-.664.378-1.326.613-1.973" transform="translate(0 0.602)" fill="#002a69"/>
        <path id="패스_73" data-name="패스 73" d="M24.837,2.063H21.78a4.549,4.549,0,0,1,.093,3.344A2.594,2.594,0,0,1,19.3,7.513l-.19,0A4.255,4.255,0,0,1,16.141,6.27a1.981,1.981,0,0,0-.182-.15A3.375,3.375,0,0,1,15.021,7.7c.036.034.081.049.115.087.022.014.043.03.065.045a1.938,1.938,0,0,1,1.2-.666.863.863,0,0,1,.151-.013.954.954,0,0,1,.931.752,3.048,3.048,0,0,1-.014,1.143c-.021.132-.052.333.008.337a3.131,3.131,0,0,0,.4-.041,4.8,4.8,0,0,1,.745-.056h.08a1.8,1.8,0,0,1,1.78,2.18,6.8,6.8,0,0,1-.983,2.9,3.426,3.426,0,0,1-5.09.495,3.966,3.966,0,0,0-.562-.483,3.851,3.851,0,0,0-.407.63,4.243,4.243,0,0,1-.722,1.024,1.412,1.412,0,0,1,1.076-.55,1.457,1.457,0,0,1,.837.282.957.957,0,0,1,.382,1l-.084.331c-.037.142-.076.287-.112.478,1.205.023,2.1.12,2.575.845.5.761.187,1.688-.315,2.915a7.257,7.257,0,0,1-.515,1.05,3.393,3.393,0,0,1-2.9,1.713,3.541,3.541,0,0,1-2.5-1.094,4.862,4.862,0,0,0-.408-.375,2.218,2.218,0,0,0-.136.232,4.025,4.025,0,0,1-1.259,1.45c.062.048.142.094.2.138a1.358,1.358,0,0,1,.168.15.973.973,0,0,1,.628-.231,1.245,1.245,0,0,1,.961.559,1.4,1.4,0,0,1,.261.929h.183a2.588,2.588,0,0,1,2.3.766c.5.731.217,1.654-.18,2.7-.034.089-.084.2-.123.3H24.837Z" transform="translate(2.728 0.602)" fill="#0070be"/>
        <path id="패스_74" data-name="패스 74" d="M3.937,27.066c.836.07,1.67.17,2.508.2.717.026.945-.535,1.224-1.082C8.4,24.748,9,24.154,10.316,25.692a2.387,2.387,0,0,0,3.6-.458,8.134,8.134,0,0,0,.643-1.37c.723-1.906.535-2.2-1.432-2.172-.661.009-1.264.031-.938-.911a.491.491,0,0,0-.265-.576c-1.046.934-1.506-.846-2.437-.5a12.3,12.3,0,0,1-2.76.231C5.865,21.9,5,23.876,4.133,25.843a2.509,2.509,0,0,0-.2,1.223" transform="translate(1.145 5.731)" fill="#0085be"/>
        <path id="패스_75" data-name="패스 75" d="M6.686,20.738c1.573.2,2.965.169,3.869-1.556.6-1.133,1.109-1.051,2.068-.088a2.4,2.4,0,0,0,3.912-.444,6.329,6.329,0,0,0,.444-.912c.88-2.15.731-2.415-1.552-2.449-.722-.01-.9-.324-.8-.93.056-.363.165-.718.247-1.05-.363-.252-.532-.022-.691.156-.466.52-.829,1.692-1.484.081-.187-.457-.856-.143-1.306-.134-.549.012-1.1.057-1.645.088.052.156.2.358.143.461C9.187,15.346,8.42,16.7,7.751,18.1c-.407.852-1.18,1.572-1.066,2.637" transform="translate(1.946 3.848)" fill="#0085be"/>
        <path id="패스_76" data-name="패스 76" d="M11.4,7.98c1.409.19,2.571.031,3.042-1.639.311-1.1,1.087-.89,1.745-.285a3.241,3.241,0,0,0,2.471.992,1.649,1.649,0,0,0,1.691-1.394c.266-1.016.554-2.069-.189-3.025-.2-.257-.537-.187-.833-.2C17.338,2.368,17.34,2.367,16.89.411a.328.328,0,0,0-.426.163c-.329.75-.62,1.56-1.363.261-.216-.376-.643-.322-1.033-.293-.8.058-1.6.092-2.4.134.121,2.442-.149,4.87-.263,7.3" transform="translate(3.325 0.115)" fill="#0085be"/>
        <path id="패스_77" data-name="패스 77" d="M11.733,14.384c-.945-.278-1.224-.737-.692-1.7.661-1.2.688-2.624,1.117-3.926.3-.9.513-1.323,1.447-1.224a.819.819,0,0,0,.774-.332A10.3,10.3,0,0,1,9.194,6.49c-.588-.261-.731-.03-.839.471-.291,1.354-.606,2.7-.908,4.054-.036.164-.053.333-.077.5-.1.687-.907,1.412-.431,1.983a3.635,3.635,0,0,0,2.657.958c.709.043,1.426-.044,2.139-.072" transform="translate(1.979 1.861)" fill="#0065b1"/>
        <path id="패스_78" data-name="패스 78" d="M12.259,8.094c.115-2.433.385-4.861.263-7.3a23.5,23.5,0,0,1-2.7-.678c-.894-.333-1.035.114-1.073.8-.107,1.93.354,3.88-.253,5.793-.142.446.319.563.593.692a6.413,6.413,0,0,0,3.166.7" transform="translate(2.471 0)" fill="#0065b1"/>
        <path id="패스_79" data-name="패스 79" d="M7.367,20.85c-.115-1.066.659-1.785,1.066-2.637.669-1.4,1.436-2.755,2.137-4.139.052-.1-.092-.3-.143-.461a7.93,7.93,0,0,1-2.823-.66c-.644-.327-.887-.046-1.128.511-.841,1.942-1.077,4.093-2.06,5.984-.238.457.121.628.393.778a3.414,3.414,0,0,0,1.674.5c.125.039.249.079.373.119l.511.01" transform="translate(1.265 3.736)" fill="#0065b1"/>
        <path id="패스_80" data-name="패스 80" d="M4.559,27.156a2.509,2.509,0,0,1,.2-1.223c.872-1.967,1.732-3.939,2.6-5.91-.448-.112-.9-.207-1.346-.341-1.831-.559-1.839-.568-2.478,1.193a47.548,47.548,0,0,1-1.649,4.917c-.236.48.079.6.389.743a4.81,4.81,0,0,0,2.291.621" transform="translate(0.524 5.641)" fill="#0065b1"/>
        <path id="패스_81" data-name="패스 81" d="M18.5,8.878c-.65-.04-1.4.349-1.933-.191-.517-.524-.021-1.282-.164-1.941-.811.129-.851.944-1.352,1.324-.581-.008-.207-.793-.692-.88-.2-.4-.5-.3-.81-.172l-.066.072a.822.822,0,0,1-.774.332c-.934-.1-1.151.327-1.447,1.224-.429,1.3-.457,2.726-1.117,3.926-.532.967-.253,1.426.692,1.7.9.174,1.253-.418,1.623-1.087.812-1.471,1.3-1.525,2.473-.366a2.473,2.473,0,0,0,3.623-.34,5.961,5.961,0,0,0,.836-2.508.856.856,0,0,0-.892-1.1" transform="translate(2.879 1.967)" fill="#0085be"/>
        <path id="패스_82" data-name="패스 82" d="M6.372,19.055,6,18.936l.373.119" transform="translate(1.749 5.521)" fill="#00a79d"/>
      </g>
    </g>
  </g>
</svg>
