<svg xmlns="http://www.w3.org/2000/svg" width="387.05" height="64" viewBox="0 0 387.05 64">
  <g id="logo_02" transform="translate(0.551 -368.146)">
    <path id="합치기_2" data-name="합치기 2" d="M188.175,61.876l-.892-9.987h-7.4l-.769,9.987H167.141L173.086,0h20.9l5.822,61.875ZM180.75,42h5.608l-2.7-31.462h-.55ZM21.025,61.876l-.868-9.987H12.74l-.769,9.987H0L5.945,0H26.833l5.846,61.875ZM13.608,42h5.6l-2.7-31.462h-.555ZM207.982,61.875v-50h-7.326V0H227.6V11.87h-7.312v50Zm-56.859,0V33.828h-5.8V61.875H133.073V0H145.32V22.115h5.8V0h12.247V61.875Zm-41.079,0v-50h-7.326V0h26.937V11.87h-7.307v50Zm-45.124,0V0H77.242V51.335H89.9v10.54Zm-28.471,0V0H48.766V51.335H61.445v10.54Z" transform="translate(0 369.219)" fill="#001c50" stroke="rgba(0,0,0,0)" stroke-width="1"/>
    <path id="합치기_1" data-name="합치기 1" d="M3.734,58.794C1.248,55.976,0,51.507,0,45.356V39.318H12.185v7.72A7.1,7.1,0,0,0,12.84,50.4a2.284,2.284,0,0,0,2.249,1.211,2.614,2.614,0,0,0,2.334-.973,6.293,6.293,0,0,0,.631-3.238,17.163,17.163,0,0,0-.555-4.764,10.83,10.83,0,0,0-1.936-3.648,41.836,41.836,0,0,0-3.829-4.072L6.2,29.633Q.01,23.768,0,16.214c0-5.279,1.225-9.29,3.654-12.065C6.1,1.388,9.618,0,14.24,0,19.891,0,23.9,1.526,26.268,4.545S29.8,12.165,29.8,18.322H17.281V14.073a2.459,2.459,0,0,0-2.643-2.68,2.6,2.6,0,0,0-2.154.834,3.211,3.211,0,0,0-.693,2.122,6.66,6.66,0,0,0,.712,2.818,12.3,12.3,0,0,0,2.766,3.476l7.089,6.848A44,44,0,0,1,26.287,31.8a19.26,19.26,0,0,1,2.866,5.279A21.973,21.973,0,0,1,30.24,44.4c0,5.813-1.068,10.382-3.2,13.658Q23.839,63,15.9,63C10.273,63,6.221,61.588,3.734,58.794Zm30.576,3.653V.577h16.27c3.4,0,6.1.753,8.1,2.284a12.555,12.555,0,0,1,4.284,6.509,34.822,34.822,0,0,1,1.286,10.043A38.716,38.716,0,0,1,63.165,29.2a11.8,11.8,0,0,1-3.853,6.452c-1.855,1.531-4.484,2.284-7.9,2.284h-5V62.447Zm12.1-35.608h.693c2.292,0,3.692-.653,4.2-1.946a16.1,16.1,0,0,0,.773-5.694,15.527,15.527,0,0,0-.754-5.422c-.513-1.288-1.675-1.926-3.554-1.926H46.415Zm73.649,35.607V.576H144.69V12.527h-12.1V24.572H144.2V36.227H132.586V50.376H145.5v12.07Zm-17.5,0L96.4,31.5V62.446H84.376V.576H97.035l5.67,29.633V.576h11.886v61.87Zm-34.976,0V.574H79.478v61.87Z" transform="translate(240.498 368.646)" fill="#008ae3" stroke="rgba(0,0,0,0)" stroke-width="1"/>
  </g>
</svg>
