<svg xmlns="http://www.w3.org/2000/svg" width="181" height="100" viewBox="0 0 181 100">
  <g id="qna_icon" transform="translate(80 0.001)">
    <path id="패스_45" data-name="패스 45" d="M8.446,77.812A49.991,49.991,0,1,1,22.187,91.553L0,100Z" transform="translate(-80)" fill="#001c50"/>
    <path id="패스_46" data-name="패스 46" d="M4.07-30.1a21.88,21.88,0,0,1,1.774-8.977,20.166,20.166,0,0,1,4.749-6.785,21.8,21.8,0,0,1,7.046-4.28,23.9,23.9,0,0,1,8.507-1.514,24.91,24.91,0,0,1,8.612,1.514,22.115,22.115,0,0,1,6.994,4.28,20.793,20.793,0,0,1,4.7,6.785A22.75,22.75,0,0,1,48.172-30.1a23.133,23.133,0,0,1-1.461,8.351,20.309,20.309,0,0,1-4.071,6.524l3.079,3.236L40.865-7.133l-3.758-3.914A26.847,26.847,0,0,1,31.94-9.116a26.648,26.648,0,0,1-5.793.678A23.9,23.9,0,0,1,17.64-9.951a21.042,21.042,0,0,1-7.046-4.332A19.39,19.39,0,0,1,5.845-21.12,21.371,21.371,0,0,1,4.07-30.1ZM31.209-27.07l6.106,6.42a15.283,15.283,0,0,0,1.931-4.28,19.965,19.965,0,0,0,.678-5.167,18.327,18.327,0,0,0-1.044-6.263,16.03,16.03,0,0,0-2.871-4.749,13.612,13.612,0,0,0-4.384-3.079,13.523,13.523,0,0,0-5.48-1.1,13.274,13.274,0,0,0-5.428,1.1,12.571,12.571,0,0,0-4.384,3.079,14.237,14.237,0,0,0-2.923,4.749,17.15,17.15,0,0,0-1.1,6.263,17.236,17.236,0,0,0,1.1,6.315,13.49,13.49,0,0,0,2.923,4.8,12.053,12.053,0,0,0,4.384,3.131,13.274,13.274,0,0,0,5.428,1.1A13.741,13.741,0,0,0,32.2-16.11l-5.845-6.106Z" transform="translate(-56.121 79.391)" fill="#fff"/>
    <g id="패스_45-2" data-name="패스 45" transform="translate(1)" fill="#fff">
      <path d="M 50 97.99900054931641 C 43.51908493041992 97.99900054931641 37.23312759399414 96.73015594482422 31.31672859191895 94.22772979736328 C 25.60115623474121 91.81024169921875 20.46764373779297 88.34898376464844 16.05877113342285 83.94008636474609 C 11.64991474151611 79.53118896484375 8.188685417175293 74.39764404296875 5.771214485168457 68.68204498291016 C 3.268828630447388 62.76562881469727 2 56.47967147827148 2 49.99878692626953 C 2 43.51800155639648 3.268814325332642 37.23212814331055 5.771214485168457 31.31578636169434 C 8.188685417175293 25.60024261474609 11.64991474151611 20.46672821044922 16.05877113342285 16.0578727722168 C 20.46764373779297 11.64898586273193 25.60115623474121 8.187743186950684 31.31672859191895 5.770257472991943 C 37.23312759399414 3.26784348487854 43.51910018920898 1.999000549316406 50 1.999000549316406 C 56.48080062866211 1.999000549316406 62.76668548583984 3.26784348487854 68.68308258056641 5.770257472991943 C 74.39864349365234 8.187743186950684 79.53217315673828 11.64900016784668 83.94107055664062 16.0578727722168 C 88.34996032714844 20.46675682067871 91.81122589111328 25.60025787353516 94.22872924804688 31.31578636169434 C 96.73115539550781 37.23215866088867 98 43.51801300048828 98 49.99878692626953 C 98 59.55798721313477 95.19670104980469 68.79057312011719 89.89317321777344 76.69844055175781 L 89.31710052490234 77.55740356445312 L 89.68505859375 78.52397155761719 L 96.54463958740234 96.54364013671875 L 78.52487182617188 89.68407440185547 L 77.55834197998047 89.31615447998047 L 76.69941711425781 89.89215850830078 C 68.79084014892578 95.19570159912109 59.55832672119141 97.99900054931641 50 97.99900054931641 Z" stroke="none"/>
      <path d="M 50 95.99900054931641 C 59.16023254394531 95.99900054931641 68.00755310058594 93.31290435791016 75.58550262451172 88.23108673095703 L 77.30335235595703 87.07908630371094 L 93.08926391601562 93.08828735351562 L 87.08000183105469 77.3023681640625 L 88.23213195800781 75.58446502685547 C 93.31391906738281 68.00723266601562 96 59.15985107421875 96 49.99878311157227 C 96 43.78713226318359 94.78431701660156 37.76340103149414 92.38671875 32.09490203857422 C 90.070068359375 26.61776733398438 86.75271606445312 21.69793319702148 82.52686309814453 17.47210121154785 C 78.30100250244141 13.24625015258789 73.38114929199219 9.928916931152344 67.90398406982422 7.612267017364502 C 62.23545074462891 5.214684009552002 56.21168518066406 3.999000549316406 50 3.999000549316406 C 43.78821563720703 3.999000549316406 37.76438522338867 5.214684009552002 32.09583282470703 7.612267017364502 C 26.61866760253906 9.928916931152344 21.69883346557617 13.24623394012451 17.47298240661621 17.47208404541016 C 13.24716663360596 21.69791793823242 9.929866790771484 26.61773300170898 7.61323356628418 32.09488296508789 C 5.215666770935059 37.76338577270508 4 43.78711700439453 4 49.99878311157227 C 4 56.21055221557617 5.215666770935059 62.23438262939453 7.61323356628418 67.9029541015625 C 9.929866790771484 73.38014984130859 13.24716663360596 78.30001831054688 17.47299957275391 82.52586364746094 C 21.69883346557617 86.75173187255859 26.61866760253906 90.06906890869141 32.09583282470703 92.38571929931641 C 37.76438522338867 94.78331756591797 43.78821563720703 95.99900054931641 50 95.99900054931641 M 100 99.99900054931641 L 77.81334686279297 91.55323028564453 C 69.86101531982422 96.88611602783203 60.29448318481445 99.99900054931641 50 99.99900054931641 C 22.38548278808594 99.99900054931641 0 77.61316680908203 0 49.99878311157227 C 0 22.38483428955078 22.38548278808594 -0.00099945068359375 50 -0.00099945068359375 C 77.61408233642578 -0.00099945068359375 100 22.38483428955078 100 49.99878311157227 C 100 60.29321670532227 96.88753509521484 69.86013031005859 91.55419921875 77.81245422363281 L 100 99.99900054931641 Z" stroke="none" fill="#008ae3"/>
    </g>
    <path id="패스_47" data-name="패스 47" d="M2.22-9.024,17.355-50.1h9.029L41.52-9.024H33.326l-4.7-13.2L13.65-18.157,10.414-9.024ZM16.155-25.1l10.438-2.818L21.844-41.173Z" transform="translate(29.13 79.56)" fill="#008ae3"/>
  </g>
</svg>
