<svg xmlns="http://www.w3.org/2000/svg" xmlns:xlink="http://www.w3.org/1999/xlink" width="26" height="30" viewBox="0 0 26 30">
  <defs>
    <clipPath id="clip-path">
      <rect id="사각형_74" data-name="사각형 74" width="26" height="30" fill="none"/>
    </clipPath>
  </defs>
  <g id="interest_icon_02" transform="translate(0.35 -18.629)">
    <g id="그룹_90" data-name="그룹 90" transform="translate(0.322 18.184)">
      <path id="패스_159" data-name="패스 159" d="M7.021,0,4.852,4.4,0,5.1,3.511,8.522l-.829,4.832,4.34-2.281,4.34,2.281-.83-4.832L14.042,5.1,9.191,4.4Z" transform="translate(5.328 6.09)" fill="#001c50"/>
    </g>
    <g id="그룹_89" data-name="그룹 89" transform="translate(-53.35 72.629)">
      <g id="그룹_88" data-name="그룹 88" transform="translate(53 -54)" clip-path="url(#clip-path)">
        <path id="패스_162" data-name="패스 162" d="M24.679,30a1.266,1.266,0,0,1-.6-.149L13,23.986,1.917,29.851a1.273,1.273,0,0,1-1.288-.057A1.4,1.4,0,0,1,0,28.616V1.384A1.354,1.354,0,0,1,1.321,0H24.679A1.354,1.354,0,0,1,26,1.384V28.616a1.4,1.4,0,0,1-.629,1.179,1.278,1.278,0,0,1-.692.205M13,21.052a1.277,1.277,0,0,1,.6.149l9.761,5.166V2.768H2.643v23.6L12.4,21.2a1.277,1.277,0,0,1,.6-.149" transform="translate(0)" fill="#001c50"/>
      </g>
    </g>
  </g>
</svg>
