<svg xmlns="http://www.w3.org/2000/svg" width="42" height="42" viewBox="0 0 42 42">
  <g id="question" transform="translate(-512 -1711)">
    <path id="패스_48" data-name="패스 48" d="M3.547,32.681a21,21,0,1,1,5.771,5.771L0,42Z" transform="translate(512 1711.001)" fill="#001c50"/>
    <path id="패스_49" data-name="패스 49" d="M4.07-43.3a8.478,8.478,0,0,1,.688-3.478A7.813,7.813,0,0,1,6.6-49.407a8.444,8.444,0,0,1,2.73-1.658,9.261,9.261,0,0,1,3.3-.586,9.651,9.651,0,0,1,3.337.586,8.568,8.568,0,0,1,2.71,1.658,8.056,8.056,0,0,1,1.82,2.629,8.814,8.814,0,0,1,.667,3.478,8.963,8.963,0,0,1-.566,3.235,7.869,7.869,0,0,1-1.577,2.528l1.193,1.254L18.326-34.4,16.87-35.92a10.4,10.4,0,0,1-2,.748,10.325,10.325,0,0,1-2.245.263,9.261,9.261,0,0,1-3.3-.586A8.153,8.153,0,0,1,6.6-37.174a7.513,7.513,0,0,1-1.84-2.649A8.28,8.28,0,0,1,4.07-43.3Zm10.515,1.173,2.366,2.487A5.921,5.921,0,0,0,17.7-41.3a7.735,7.735,0,0,0,.263-2,7.1,7.1,0,0,0-.4-2.427,6.211,6.211,0,0,0-1.112-1.84,5.274,5.274,0,0,0-1.7-1.193,5.239,5.239,0,0,0-2.123-.425,5.143,5.143,0,0,0-2.1.425,4.87,4.87,0,0,0-1.7,1.193,5.516,5.516,0,0,0-1.132,1.84A6.645,6.645,0,0,0,7.265-43.3a6.678,6.678,0,0,0,.425,2.447,5.227,5.227,0,0,0,1.132,1.86,4.67,4.67,0,0,0,1.7,1.213,5.143,5.143,0,0,0,2.1.425,5.324,5.324,0,0,0,2.346-.526L12.7-40.247Z" transform="translate(520.386 1775.028)" fill="#fff"/>
  </g>
</svg>
