<svg id="accuse_0ff" xmlns="http://www.w3.org/2000/svg" xmlns:xlink="http://www.w3.org/1999/xlink" width="35.078" height="30.053" viewBox="0 0 35.078 30.053">
  <defs>
    <clipPath id="clip-path">
      <rect id="사각형_88" data-name="사각형 88" width="35.078" height="30.053" fill="#001c50"/>
    </clipPath>
  </defs>
  <g id="그룹_117" data-name="그룹 117" clip-path="url(#clip-path)">
    <path id="패스_185" data-name="패스 185" d="M107.927,318.591H87.379a.848.848,0,0,1-.848-.848v-5.2a.848.848,0,0,1,.848-.848h20.548a.848.848,0,0,1,.848.848v5.2a.848.848,0,0,1-.848.848m-19.7-1.7h18.853v-3.5H88.226Z" transform="translate(-80.152 -288.722)" fill="#001c50"/>
    <path id="패스_186" data-name="패스 186" d="M106.074,316.738v.147H85.526a1,1,0,0,1-1-1v-5.2a1,1,0,0,1,1-1h20.548a1,1,0,0,1,1,1v5.2a1,1,0,0,1-1,1v-.295a.7.7,0,0,0,.7-.7v-5.2a.7.7,0,0,0-.7-.7H85.526a.7.7,0,0,0-.7.7v5.2a.7.7,0,0,0,.7.7h20.548Zm-19.7-1.7V314.9h18.705V311.69H86.521v3.352h-.147v0h-.147V311.4h19.148v3.795H86.226v-.147Z" transform="translate(-78.3 -286.87)" fill="#001c50"/>
    <path id="패스_187" data-name="패스 187" d="M127.1,126.161H109.779a.848.848,0,0,1-.848-.848v-6.342a9.417,9.417,0,0,1,9.407-9.407h.205a9.417,9.417,0,0,1,9.407,9.407v6.342a.848.848,0,0,1-.848.848m-16.475-1.7h15.628v-5.494a7.72,7.72,0,0,0-7.711-7.711h-.205a7.72,7.72,0,0,0-7.711,7.711Z" transform="translate(-100.901 -101.488)" fill="#001c50"/>
    <path id="패스_188" data-name="패스 188" d="M125.249,124.309v.147H107.926a1,1,0,0,1-1-1v-6.342a9.565,9.565,0,0,1,9.554-9.554h.205a9.565,9.565,0,0,1,9.554,9.554v6.342a1,1,0,0,1-1,1v-.295a.7.7,0,0,0,.7-.7v-6.342a9.282,9.282,0,0,0-9.259-9.259h-.205a9.282,9.282,0,0,0-9.259,9.259v6.342a.7.7,0,0,0,.7.7h17.323Zm-16.475-1.7v-.147h15.48v-5.346a7.583,7.583,0,0,0-7.564-7.564h-.205a7.583,7.583,0,0,0-7.564,7.564v5.494h-.147v0h-.147v-5.494a7.867,7.867,0,0,1,7.859-7.859h.205a7.868,7.868,0,0,1,7.859,7.859v5.641H108.626v-.147Z" transform="translate(-99.048 -99.636)" fill="#001c50"/>
    <path id="패스_189" data-name="패스 189" d="M223.948,161.874a.756.756,0,0,1-.756-.756,5.761,5.761,0,0,0-5.754-5.754h-.156a.756.756,0,1,1,0-1.512h.156a7.274,7.274,0,0,1,7.266,7.266.756.756,0,0,1-.756.756" transform="translate(-200.564 -142.511)" fill="#001c50"/>
    <path id="패스_190" data-name="패스 190" d="M222.1,160.021v.147a.9.9,0,0,1-.9-.9,5.621,5.621,0,0,0-5.607-5.607h-.156a.9.9,0,1,1,0-1.807h.156A7.422,7.422,0,0,1,223,159.265a.9.9,0,0,1-.9.9v-.295a.609.609,0,0,0,.609-.609,7.136,7.136,0,0,0-7.119-7.119h-.156a.608.608,0,1,0,0,1.217h.156a5.908,5.908,0,0,1,5.9,5.9.609.609,0,0,0,.609.609Z" transform="translate(-198.712 -140.658)" fill="#001c50"/>
    <path id="패스_191" data-name="패스 191" d="M226.751,8.35A.848.848,0,0,1,225.9,7.5V3.348a.848.848,0,0,1,1.7,0V7.5a.848.848,0,0,1-.848.848" transform="translate(-209.25 -2.316)" fill="#001c50"/>
    <path id="패스_192" data-name="패스 192" d="M224.9,6.5v.147a1,1,0,0,1-1-1V1.5a1,1,0,0,1,1.99,0V5.65a1,1,0,0,1-1,1V6.35a.7.7,0,0,0,.7-.7V1.5a.7.7,0,1,0-1.4,0V5.65a.7.7,0,0,0,.7.7Z" transform="translate(-207.398 -0.463)" fill="#001c50"/>
    <path id="패스_193" data-name="패스 193" d="M398.991,228.832h-4.155a.848.848,0,0,1,0-1.7h4.155a.848.848,0,0,1,0,1.7" transform="translate(-364.944 -210.393)" fill="#001c50"/>
    <path id="패스_194" data-name="패스 194" d="M397.138,226.98v.147h-4.155a1,1,0,1,1,0-1.99h4.155a1,1,0,1,1,0,1.99v-.295a.7.7,0,1,0,0-1.4h-4.155a.7.7,0,1,0,0,1.4h4.155Z" transform="translate(-363.092 -208.541)" fill="#001c50"/>
    <path id="패스_195" data-name="패스 195" d="M347.956,70.9a.848.848,0,0,1-.6-1.447l2.938-2.938a.848.848,0,0,1,1.2,1.2l-2.938,2.938a.845.845,0,0,1-.6.248" transform="translate(-321.521 -61.379)" fill="#001c50"/>
    <path id="패스_196" data-name="패스 196" d="M346.1,69.045v.147a1,1,0,0,1-.7-1.7l2.938-2.938a1,1,0,0,1,1.407,1.407L346.808,68.9a.993.993,0,0,1-.7.291V68.9a.7.7,0,0,0,.5-.205l2.938-2.938a.7.7,0,0,0-.99-.99L345.609,67.7a.7.7,0,0,0,.5,1.2Z" transform="translate(-319.669 -59.527)" fill="#001c50"/>
    <path id="패스_197" data-name="패스 197" d="M72.662,70.9a.845.845,0,0,1-.6-.248l-2.938-2.938a.848.848,0,0,1,1.2-1.2l2.938,2.938a.848.848,0,0,1-.6,1.447" transform="translate(-63.799 -61.379)" fill="#001c50"/>
    <path id="패스_198" data-name="패스 198" d="M70.81,69.045v.147a.993.993,0,0,1-.7-.291l-2.938-2.938a1,1,0,0,1,1.407-1.407l2.938,2.938a1,1,0,0,1-.7,1.7V68.9a.7.7,0,0,0,.5-1.2l-2.938-2.938a.7.7,0,1,0-.99.99l2.938,2.938a.7.7,0,0,0,.5.205Z" transform="translate(-61.947 -59.527)" fill="#001c50"/>
    <path id="패스_199" data-name="패스 199" d="M7.5,228.832H3.348a.848.848,0,0,1,0-1.7H7.5a.848.848,0,0,1,0,1.7" transform="translate(-2.316 -210.393)" fill="#001c50"/>
    <path id="패스_200" data-name="패스 200" d="M5.65,226.98v.147H1.5a1,1,0,0,1,0-1.99H5.65a1,1,0,0,1,0,1.99v-.295a.7.7,0,1,0,0-1.4H1.5a.7.7,0,1,0,0,1.4H5.65Z" transform="translate(-0.463 -208.541)" fill="#001c50"/>
  </g>
</svg>
